<svg width="63" height="64" viewBox="0 0 63 64" fill="none" xmlns="http://www.w3.org/2000/svg">
<path d="M58.17 27.69C57.65 12.36 46.06 0 32.04 0H30.18C16.25 0 4.66 12.27 4.05 27.48C1.71 28.15 0 30.29 0 32.83V39.34C0 42.42 2.5 44.93 5.59 44.93C7.28 44.93 8.79 44.17 9.82 42.97C10.83 46.86 12.45 50.56 14.52 53.71C18.78 60.21 24.46 63.86 30.5 63.99L30.84 64C36.96 64 42.74 60.47 47.13 54.07C47.49 53.54 47.84 52.98 48.18 52.42L50.13 52.4C52.0227 52.4061 53.8587 51.7541 55.3236 50.5555C56.7885 49.357 57.7912 47.6865 58.16 45.83H58.21L58.28 45.15C58.29 45.06 58.29 44.97 58.29 44.88C60.56 44.17 62.22 42.06 62.22 39.57V33.06C62.22 30.5 60.51 28.36 58.17 27.69ZM8.87 28.33C8.44 28.01 7.96 27.76 7.45 27.57C8.02 14.19 18.08 3.41 30.18 3.41H32.04C44.22 3.41 54.29 14.29 54.76 27.78C54.28 27.95 53.83 28.19 53.42 28.48C51.87 15.97 43.41 7.75 31.72 7.5H31.27C25.2 7.5 19.61 9.83 15.52 14.05C11.97 17.73 9.69 22.66 8.87 28.33ZM46.16 49.04L38.12 49.15C37.8101 48.5581 37.3447 48.0618 36.7738 47.7147C36.2029 47.3676 35.5481 47.1827 34.88 47.18H31.8C29.76 47.18 28.11 48.84 28.11 50.86C28.11 52.9 29.77 54.55 31.8 54.55H34.88C36.29 54.55 37.52 53.73 38.13 52.55L44.02 52.47C40.27 57.64 35.52 60.58 30.83 60.58H30.56C25.67 60.47 20.98 57.37 17.35 51.83C13.9 46.57 11.92 39.78 11.92 33.2V32.84L11.93 32.48C12.07 25.91 14.16 20.36 17.97 16.41C21.42 12.85 26.12 10.89 31.2 10.89H31.22C31.35 10.89 31.48 10.89 31.63 10.9C42.6 11.14 50.27 20.08 50.27 32.63C50.27 32.86 50.27 33.08 50.26 33.32C50.16 38.79 48.69 44.34 46.16 49.04ZM54.86 44.94C54.51 47.25 52.48 48.99 50.12 48.99H50C50.88 47.11 51.62 45.1 52.22 42.97C52.89 43.84 53.81 44.5 54.87 44.86C54.86 44.88 54.86 44.91 54.86 44.94Z" fill="white"/>
</svg>
